# xmcd
#
# Track frame offsets:
#	150
#	15985
#	31313
#	47040
#	61375
#	74180
#	87638
#	100703
#	118685
#	132958
#
# Disc length: 1967 seconds
#
# Revision: 2
# Processed by: cddbd v1.5.1PL0 Copyright (c) Steve Scherf et al.
# Submitted via: audiograbber 1.83.01
#
DISCID=8907ad0a
DTITLE=The Judds - Why Not Me
DYEAR=1984
DGENRE=Country
TTITLE0=Why Not Me
TTITLE1=Mr. Pain
TTITLE2=Drops Of Water
TTITLE3=Sleeping Heart
TTITLE4=My Baby's Gone
TTITLE5=Bye Bye Baby Blues
TTITLE6=Girls Night Out
TTITLE7=Love Is Alive
TTITLE8=Endless Sleep
TTITLE9=Mama He's Crazy
EXTD=
EXTT0=
EXTT1=
EXTT2=
EXTT3=
EXTT4=
EXTT5=
EXTT6=
EXTT7=
EXTT8=
EXTT9=
PLAYORDER=
